# xmcd
#
# Track frame offsets: 
#        150
#        18922
#        32706
#        52122
#        75233
#        91976
#        109887
#        128424
#        145914
#        158458
#
# Disc length: 2260 seconds
#
# Revision: 0
# Processed by: cddbd v1.5.2PL0 Copyright (c) Steve Scherf et al.
# Submitted via: ExactAudioCopy v1.3
#
DISCID=6e08d20a
DTITLE=Lew Jetton and 61 South - Palestine Blues
DYEAR=2017
DGENRE=Blues
TTITLE0=Will I Go to Hell
TTITLE1=Oh, My My
TTITLE2=For the Pain
TTITLE3=Mexico
TTITLE4=Sold Us Out
TTITLE5=Drinking Again
TTITLE6=Don't Need No Devil
TTITLE7=Christ Have Mercy
TTITLE8=Drama
TTITLE9=Bout Time
EXTD=
EXTT0=
EXTT1=
EXTT2=
EXTT3=
EXTT4=
EXTT5=
EXTT6=
EXTT7=
EXTT8=
EXTT9=
PLAYORDER=
